<?xml version="1.0" encoding="UTF-8"?>
<svg xmlns="http://www.w3.org/2000/svg" width="1200" height="1600" viewBox="0 0 1200 1600" preserveAspectRatio="xMidYMid meet">
  <title>Seated Massage Chair</title>
  <desc>Line-art placeholder for a seated massage chair</desc>
  <g fill="none" stroke="#000" stroke-width="20" stroke-linecap="round" stroke-linejoin="round">
    <path d="M300 900c0-120 40-220 200-320 120-80 220-80 340 0 160 100 200 200 200 320"/>
    <path d="M250 1150c0-80 40-140 140-200 120-72 200-88 340-20 160 80 240 120 340 160 40 16 80 40 80 80v120"/>
    <path d="M200 1350h800"/>
    <circle cx="280" cy="820" r="70"/>
    <path d="M420 400c60-40 140-60 240-60s180 20 240 60"/>
  </g>
</svg>
